<mxfile host="65bd71144e">
    <diagram id="Dy8kKL6r9EhC8Fl_6itS" name="Page-1">
        <mxGraphModel dx="1138" dy="1885" grid="1" gridSize="10" guides="1" tooltips="1" connect="1" arrows="1" fold="0" page="1" pageScale="1" pageWidth="850" pageHeight="1100" background="none" math="0" shadow="0" adaptiveColors="simple">
            <root>
                <object label="" id="0">
                    <mxCell/>
                </object>
                <mxCell id="1" parent="0"/>
                <mxCell id="53" value="Main" style="whiteSpace=wrap;html=1;fontStyle=1;startSize=23;fillColor=#60a917;fontColor=#ffffff;strokeColor=#2D7600;comic=0;arcSize=12;" parent="1" vertex="1">
                    <mxGeometry x="1615" y="860" width="180" height="60" as="geometry"/>
                </mxCell>
                <mxCell id="176" value="" style="edgeStyle=none;html=1;entryX=0.5;entryY=0;entryDx=0;entryDy=0;exitX=1;exitY=0.5;exitDx=0;exitDy=0;" parent="1" source="32" target="17" edge="1">
                    <mxGeometry relative="1" as="geometry">
                        <mxPoint x="1110" y="63.29268292682923" as="targetPoint"/>
                    </mxGeometry>
                </mxCell>
                <mxCell id="217" value="&lt;span style=&quot;color: rgb(255, 255, 255); font-size: 12px; background-color: rgb(27, 29, 30);&quot;&gt;$ godotenv addons install&lt;/span&gt;" style="edgeLabel;html=1;align=center;verticalAlign=middle;resizable=0;points=[];" parent="176" vertex="1" connectable="0">
                    <mxGeometry relative="1" as="geometry">
                        <mxPoint x="1" as="offset"/>
                    </mxGeometry>
                </mxCell>
                <mxCell id="32" value="Addons.json" style="rounded=0;whiteSpace=wrap;html=1;arcSize=12;" parent="1" vertex="1">
                    <mxGeometry x="880" y="50" width="150" height="60" as="geometry"/>
                </mxCell>
                <mxCell id="190" style="edgeStyle=none;html=1;" parent="1" source="168" edge="1">
                    <mxGeometry relative="1" as="geometry">
                        <mxPoint x="1525" y="650" as="targetPoint"/>
                    </mxGeometry>
                </mxCell>
                <mxCell id="168" value="Assets/" style="rounded=0;whiteSpace=wrap;html=1;" parent="1" vertex="1">
                    <mxGeometry x="1300" y="620" width="150" height="60" as="geometry"/>
                </mxCell>
                <mxCell id="17" value="addons" style="swimlane;whiteSpace=wrap;html=1;rounded=0;aspect=fixed;startSize=30;arcSize=12;fillColor=#60a917;fontColor=#ffffff;strokeColor=#2D7600;" parent="1" vertex="1">
                    <mxGeometry x="1290" y="200" width="350" height="200" as="geometry">
                        <mxRectangle x="120" y="330" width="90" height="30" as="alternateBounds"/>
                    </mxGeometry>
                </mxCell>
                <mxCell id="73" value="" style="group;arcSize=12;" parent="17" vertex="1" connectable="0">
                    <mxGeometry x="20" y="50" width="310" height="130" as="geometry"/>
                </mxCell>
                <mxCell id="33" value="Blocks" style="rounded=0;whiteSpace=wrap;html=1;aspect=fixed;arcSize=12;" parent="73" vertex="1">
                    <mxGeometry width="150" height="60" as="geometry"/>
                </mxCell>
                <mxCell id="38" value="Toolbar" style="rounded=0;whiteSpace=wrap;html=1;aspect=fixed;arcSize=12;" parent="73" vertex="1">
                    <mxGeometry y="70" width="150" height="60" as="geometry"/>
                </mxCell>
                <mxCell id="39" value="EditorMods" style="rounded=0;whiteSpace=wrap;html=1;aspect=fixed;arcSize=12;" parent="73" vertex="1">
                    <mxGeometry x="160" y="70" width="150" height="60" as="geometry"/>
                </mxCell>
                <mxCell id="36" value="Connections" style="rounded=0;whiteSpace=wrap;html=1;aspect=fixed;arcSize=12;" parent="73" vertex="1">
                    <mxGeometry x="160" width="150" height="60" as="geometry"/>
                </mxCell>
                <mxCell id="192" style="edgeStyle=none;html=1;entryX=0.75;entryY=0;entryDx=0;entryDy=0;exitX=0.25;exitY=1;exitDx=0;exitDy=0;" parent="1" source="161" target="180" edge="1">
                    <mxGeometry relative="1" as="geometry"/>
                </mxCell>
                <mxCell id="194" value="logic" style="edgeLabel;html=1;align=center;verticalAlign=middle;resizable=0;points=[];" parent="192" vertex="1" connectable="0">
                    <mxGeometry relative="1" as="geometry">
                        <mxPoint as="offset"/>
                    </mxGeometry>
                </mxCell>
                <mxCell id="161" value="LogicBlocks" style="swimlane;whiteSpace=wrap;html=1;rounded=0;aspect=fixed;startSize=30;arcSize=12;fillColor=#6a00ff;fontColor=#ffffff;strokeColor=#3700CC;" parent="1" vertex="1">
                    <mxGeometry x="1780" y="200" width="350" height="200" as="geometry">
                        <mxRectangle x="120" y="330" width="90" height="30" as="alternateBounds"/>
                    </mxGeometry>
                </mxCell>
                <mxCell id="162" value="" style="group;arcSize=12;" parent="161" vertex="1" connectable="0">
                    <mxGeometry x="20" y="50" width="310" height="130" as="geometry"/>
                </mxCell>
                <mxCell id="163" value="ConnectionLogic" style="rounded=0;whiteSpace=wrap;html=1;aspect=fixed;arcSize=12;" parent="162" vertex="1">
                    <mxGeometry width="150" height="60" as="geometry"/>
                </mxCell>
                <mxCell id="164" value="GameLogic" style="rounded=0;whiteSpace=wrap;html=1;aspect=fixed;arcSize=12;" parent="162" vertex="1">
                    <mxGeometry y="70" width="150" height="60" as="geometry"/>
                </mxCell>
                <mxCell id="165" value="TokenLogic" style="rounded=0;whiteSpace=wrap;html=1;aspect=fixed;arcSize=12;" parent="162" vertex="1">
                    <mxGeometry x="160" y="70" width="150" height="60" as="geometry"/>
                </mxCell>
                <mxCell id="166" value="BlockLogic" style="rounded=0;whiteSpace=wrap;html=1;aspect=fixed;arcSize=12;" parent="162" vertex="1">
                    <mxGeometry x="160" width="150" height="60" as="geometry"/>
                </mxCell>
                <mxCell id="179" value="" style="group" parent="1" vertex="1" connectable="0">
                    <mxGeometry x="1600" y="1030" width="200" height="70" as="geometry"/>
                </mxCell>
                <mxCell id="178" value="" style="whiteSpace=wrap;html=1;" parent="179" vertex="1">
                    <mxGeometry width="200" height="70" as="geometry"/>
                </mxCell>
                <mxCell id="172" value="GDScript" style="whiteSpace=wrap;html=1;align=center;fillColor=#60a917;fontColor=#ffffff;strokeColor=#2D7600;" parent="179" vertex="1">
                    <mxGeometry y="30" width="100" height="40" as="geometry"/>
                </mxCell>
                <mxCell id="173" value="C#" style="whiteSpace=wrap;html=1;align=center;fillColor=#6a00ff;fontColor=#ffffff;strokeColor=#3700CC;" parent="179" vertex="1">
                    <mxGeometry x="100" y="30" width="100" height="40" as="geometry"/>
                </mxCell>
                <mxCell id="174" value="Key" style="text;strokeColor=none;fillColor=none;spacingLeft=4;spacingRight=4;overflow=hidden;rotatable=0;points=[[0,0.5],[1,0.5]];portConstraint=eastwest;fontSize=12;whiteSpace=wrap;html=1;" parent="179" vertex="1">
                    <mxGeometry x="80" width="40" height="30" as="geometry"/>
                </mxCell>
                <mxCell id="196" style="edgeStyle=none;html=1;exitX=0.5;exitY=1;exitDx=0;exitDy=0;" parent="1" source="180" target="53" edge="1">
                    <mxGeometry relative="1" as="geometry"/>
                </mxCell>
                <mxCell id="180" value="scenes" style="swimlane;whiteSpace=wrap;html=1;rounded=0;aspect=fixed;startSize=30;arcSize=12;fillColor=#60a917;fontColor=#ffffff;strokeColor=#2D7600;" parent="1" vertex="1">
                    <mxGeometry x="1530" y="560" width="350" height="200" as="geometry">
                        <mxRectangle x="120" y="330" width="90" height="30" as="alternateBounds"/>
                    </mxGeometry>
                </mxCell>
                <mxCell id="181" value="" style="group;arcSize=12;" parent="180" vertex="1" connectable="0">
                    <mxGeometry x="20" y="50" width="310" height="130" as="geometry"/>
                </mxCell>
                <mxCell id="182" value="Blocks" style="rounded=0;whiteSpace=wrap;html=1;aspect=fixed;arcSize=12;" parent="181" vertex="1">
                    <mxGeometry width="150" height="60" as="geometry"/>
                </mxCell>
                <mxCell id="183" value="UI" style="rounded=0;whiteSpace=wrap;html=1;aspect=fixed;arcSize=12;" parent="181" vertex="1">
                    <mxGeometry y="70" width="150" height="60" as="geometry"/>
                </mxCell>
                <mxCell id="184" value="Utils" style="rounded=0;whiteSpace=wrap;html=1;aspect=fixed;arcSize=12;" parent="181" vertex="1">
                    <mxGeometry x="160" y="70" width="150" height="60" as="geometry"/>
                </mxCell>
                <mxCell id="185" value="Services" style="rounded=0;whiteSpace=wrap;html=1;aspect=fixed;arcSize=12;" parent="181" vertex="1">
                    <mxGeometry x="160" width="150" height="60" as="geometry"/>
                </mxCell>
                <mxCell id="193" style="edgeStyle=none;html=1;exitX=0.75;exitY=1;exitDx=0;exitDy=0;entryX=0.281;entryY=-0.001;entryDx=0;entryDy=0;entryPerimeter=0;" parent="1" source="17" target="180" edge="1">
                    <mxGeometry relative="1" as="geometry"/>
                </mxCell>
                <mxCell id="195" value="ui" style="edgeLabel;html=1;align=center;verticalAlign=middle;resizable=0;points=[];" parent="193" vertex="1" connectable="0">
                    <mxGeometry relative="1" as="geometry">
                        <mxPoint as="offset"/>
                    </mxGeometry>
                </mxCell>
                <mxCell id="216" style="edgeStyle=none;html=1;entryX=1;entryY=0.5;entryDx=0;entryDy=0;" parent="1" source="215" target="161" edge="1">
                    <mxGeometry relative="1" as="geometry"/>
                </mxCell>
                <mxCell id="215" value="DotNet" style="swimlane;whiteSpace=wrap;html=1;fillColor=#6a00ff;fontColor=#ffffff;strokeColor=#3700CC;" parent="1" vertex="1">
                    <mxGeometry x="2260" y="90" width="250" height="420" as="geometry"/>
                </mxCell>
                <mxCell id="207" value="ChickenSoft" style="swimlane;whiteSpace=wrap;html=1;fillColor=#6a00ff;fontColor=#ffffff;strokeColor=#3700CC;" parent="215" vertex="1">
                    <mxGeometry x="30" y="30" width="200" height="200" as="geometry"/>
                </mxCell>
                <mxCell id="210" value="&lt;table style=&quot;scrollbar-color: light-dark(#e2e2e2, #4b4b4b)&lt;br/&gt;&#x9;&#x9;&#x9;&#x9;&#x9;light-dark(#fbfbfb, var(--dark-panel-color)); text-wrap: nowrap;&quot;&gt;&lt;tbody style=&quot;scrollbar-color: light-dark(#e2e2e2, #4b4b4b)&lt;br/&gt;&#x9;&#x9;&#x9;&#x9;&#x9;light-dark(#fbfbfb, var(--dark-panel-color));&quot;&gt;&lt;tr style=&quot;scrollbar-color: light-dark(#e2e2e2, #4b4b4b)&lt;br/&gt;&#x9;&#x9;&#x9;&#x9;&#x9;light-dark(#fbfbfb, var(--dark-panel-color));&quot;&gt;&lt;td style=&quot;scrollbar-color: light-dark(#e2e2e2, #4b4b4b)&lt;br/&gt;&#x9;&#x9;&#x9;&#x9;&#x9;light-dark(#fbfbfb, var(--dark-panel-color));&quot;&gt;AutoInject&lt;/td&gt;&lt;/tr&gt;&lt;tr style=&quot;scrollbar-color: light-dark(#e2e2e2, #4b4b4b)&lt;br/&gt;&#x9;&#x9;&#x9;&#x9;&#x9;light-dark(#fbfbfb, var(--dark-panel-color));&quot;&gt;&lt;td style=&quot;scrollbar-color: light-dark(#e2e2e2, #4b4b4b)&lt;br/&gt;&#x9;&#x9;&#x9;&#x9;&#x9;light-dark(#fbfbfb, var(--dark-panel-color));&quot;&gt;Introspection&lt;/td&gt;&lt;/tr&gt;&lt;tr style=&quot;scrollbar-color: light-dark(#e2e2e2, #4b4b4b)&lt;br/&gt;&#x9;&#x9;&#x9;&#x9;&#x9;light-dark(#fbfbfb, var(--dark-panel-color));&quot;&gt;&lt;td style=&quot;scrollbar-color: light-dark(#e2e2e2, #4b4b4b)&lt;br/&gt;&#x9;&#x9;&#x9;&#x9;&#x9;light-dark(#fbfbfb, var(--dark-panel-color));&quot;&gt;Introspection.Generator&lt;/td&gt;&lt;/tr&gt;&lt;tr style=&quot;scrollbar-color: light-dark(#e2e2e2, #4b4b4b)&lt;br/&gt;&#x9;&#x9;&#x9;&#x9;&#x9;light-dark(#fbfbfb, var(--dark-panel-color));&quot;&gt;&lt;td style=&quot;scrollbar-color: light-dark(#e2e2e2, #4b4b4b)&lt;br/&gt;&#x9;&#x9;&#x9;&#x9;&#x9;light-dark(#fbfbfb, var(--dark-panel-color));&quot;&gt;LogicBlocks&lt;/td&gt;&lt;/tr&gt;&lt;tr style=&quot;scrollbar-color: light-dark(#e2e2e2, #4b4b4b)&lt;br/&gt;&#x9;&#x9;&#x9;&#x9;&#x9;light-dark(#fbfbfb, var(--dark-panel-color));&quot;&gt;&lt;td style=&quot;scrollbar-color: light-dark(#e2e2e2, #4b4b4b)&lt;br/&gt;&#x9;&#x9;&#x9;&#x9;&#x9;light-dark(#fbfbfb, var(--dark-panel-color));&quot;&gt;LogicBlocks.DiagramGenerator&lt;br&gt;SaveFileBuilder&lt;/td&gt;&lt;/tr&gt;&lt;tr style=&quot;scrollbar-color: light-dark(#e2e2e2, #4b4b4b)&lt;br/&gt;&#x9;&#x9;&#x9;&#x9;&#x9;light-dark(#fbfbfb, var(--dark-panel-color));&quot;&gt;&lt;td style=&quot;scrollbar-color: light-dark(#e2e2e2, #4b4b4b)&lt;br/&gt;&#x9;&#x9;&#x9;&#x9;&#x9;light-dark(#fbfbfb, var(--dark-panel-color));&quot;&gt;Serialization&lt;br&gt;Serialization.Godot&lt;/td&gt;&lt;/tr&gt;&lt;/tbody&gt;&lt;/table&gt;" style="whiteSpace=wrap;html=1;strokeColor=none;fillColor=none;" parent="207" vertex="1">
                    <mxGeometry x="40" y="80" width="120" height="60" as="geometry"/>
                </mxCell>
                <mxCell id="212" value="Additional packages" style="swimlane;whiteSpace=wrap;html=1;fillColor=#6a00ff;fontColor=#ffffff;strokeColor=#3700CC;" parent="215" vertex="1">
                    <mxGeometry x="30" y="240" width="200" height="160" as="geometry"/>
                </mxCell>
                <mxCell id="213" value="&lt;table style=&quot;scrollbar-color: light-dark(#e2e2e2, #4b4b4b)&lt;br/&gt;&#x9;&#x9;&#x9;&#x9;&#x9;light-dark(#fbfbfb, var(--dark-panel-color)); text-wrap: nowrap;&quot;&gt;&lt;tbody style=&quot;scrollbar-color: light-dark(#e2e2e2, #4b4b4b)&lt;br/&gt;&#x9;&#x9;&#x9;&#x9;&#x9;light-dark(#fbfbfb, var(--dark-panel-color));&quot;&gt;&lt;tr style=&quot;scrollbar-color: light-dark(#e2e2e2, #4b4b4b)&lt;br/&gt;&#x9;&#x9;&#x9;&#x9;&#x9;light-dark(#fbfbfb, var(--dark-panel-color));&quot;&gt;&lt;td style=&quot;scrollbar-color: light-dark(#e2e2e2, #4b4b4b)&lt;br/&gt;&#x9;&#x9;&#x9;&#x9;&#x9;light-dark(#fbfbfb, var(--dark-panel-color));&quot;&gt;Godot.SourceGenerators&lt;/td&gt;&lt;/tr&gt;&lt;tr style=&quot;scrollbar-color: light-dark(#e2e2e2, #4b4b4b)&lt;br/&gt;&#x9;&#x9;&#x9;&#x9;&#x9;light-dark(#fbfbfb, var(--dark-panel-color));&quot;&gt;&lt;td style=&quot;scrollbar-color: light-dark(#e2e2e2, #4b4b4b)&lt;br/&gt;&#x9;&#x9;&#x9;&#x9;&#x9;light-dark(#fbfbfb, var(--dark-panel-color));&quot;&gt;GodotSharp&lt;/td&gt;&lt;/tr&gt;&lt;tr style=&quot;scrollbar-color: light-dark(#e2e2e2, #4b4b4b)&lt;br/&gt;&#x9;&#x9;&#x9;&#x9;&#x9;light-dark(#fbfbfb, var(--dark-panel-color));&quot;&gt;&lt;td style=&quot;scrollbar-color: light-dark(#e2e2e2, #4b4b4b)&lt;br/&gt;&#x9;&#x9;&#x9;&#x9;&#x9;light-dark(#fbfbfb, var(--dark-panel-color));&quot;&gt;GodotSharpEditor&lt;/td&gt;&lt;/tr&gt;&lt;tr style=&quot;scrollbar-color: light-dark(#e2e2e2, #4b4b4b)&lt;br/&gt;&#x9;&#x9;&#x9;&#x9;&#x9;light-dark(#fbfbfb, var(--dark-panel-color));&quot;&gt;&lt;td style=&quot;scrollbar-color: light-dark(#e2e2e2, #4b4b4b)&lt;br/&gt;&#x9;&#x9;&#x9;&#x9;&#x9;light-dark(#fbfbfb, var(--dark-panel-color));&quot;&gt;GodotTools.IdeMessaging&lt;/td&gt;&lt;/tr&gt;&lt;tr style=&quot;scrollbar-color: light-dark(#e2e2e2, #4b4b4b)&lt;br/&gt;&#x9;&#x9;&#x9;&#x9;&#x9;light-dark(#fbfbfb, var(--dark-panel-color));&quot;&gt;&lt;td style=&quot;scrollbar-color: light-dark(#e2e2e2, #4b4b4b)&lt;br/&gt;&#x9;&#x9;&#x9;&#x9;&#x9;light-dark(#fbfbfb, var(--dark-panel-color));&quot;&gt;&lt;span style=&quot;color: rgb(192, 192, 192);&quot;&gt;roslynator.analyzers&lt;/span&gt;&lt;br&gt;&lt;/td&gt;&lt;/tr&gt;&lt;tr style=&quot;scrollbar-color: light-dark(#e2e2e2, #4b4b4b)&lt;br/&gt;&#x9;&#x9;&#x9;&#x9;&#x9;light-dark(#fbfbfb, var(--dark-panel-color));&quot;&gt;&lt;td style=&quot;scrollbar-color: light-dark(#e2e2e2, #4b4b4b)&lt;br/&gt;&#x9;&#x9;&#x9;&#x9;&#x9;light-dark(#fbfbfb, var(--dark-panel-color));&quot;&gt;&lt;br&gt;&lt;/td&gt;&lt;/tr&gt;&lt;/tbody&gt;&lt;/table&gt;" style="whiteSpace=wrap;html=1;strokeColor=none;fillColor=none;" parent="212" vertex="1">
                    <mxGeometry x="40" y="70" width="120" height="60" as="geometry"/>
                </mxCell>
            </root>
        </mxGraphModel>
    </diagram>
</mxfile>